<svg xmlns="http://www.w3.org/2000/svg" width="105.288" height="28" viewBox="0 0 105.288 28">
  <g id="Bajaj-Finserv" transform="translate(-91.5 -234.5)">
    <path id="Path_1" data-name="Path 1" d="M376.468,252.938c.8,0,1.427-.384,1.427-1.166V244.5h3.452v7.594c0,2.3-1.519,3.068-3.513,3.068H372.08a1.273,1.273,0,0,1-.629-.153,1.331,1.331,0,0,1-.491-.43l-1-1.642Zm-28.274,0c.8,0,1.427-.384,1.427-1.166V244.5h3.436v7.594c0,2.3-1.519,3.068-3.513,3.068H343.79a1.383,1.383,0,0,1-1.12-.6l-1-1.642Zm13.255-5.86-4.664,8.1H352.7l6.52-10.678h4.449l6.5,10.678h-4.05l-1.1-1.9h-6.029l1-1.642a1.207,1.207,0,0,1,.491-.43,1.314,1.314,0,0,1,.629-.153h2.608l-2.271-3.973Zm-28.29,0-4.679,8.1h-4.065l6.52-10.678h4.449l6.5,10.678h-4.065l-1.089-1.9H330.7l1-1.642a1.207,1.207,0,0,1,.491-.43,1.314,1.314,0,0,1,.629-.153h2.608Zm-19.407,3.605v4.5l.982-1.642a1.207,1.207,0,0,1,.491-.43,1.314,1.314,0,0,1,.629-.153h3.8a1.138,1.138,0,1,0,0-2.255Zm0,0,.982-1.642a1.383,1.383,0,0,1,1.12-.6H319.7c.69,0,1.243-.307,1.243-.844s-.552-.859-1.243-.859h-5.968v3.943Zm-3.452,4.5V244.5h9.42c1.948,0,5.063.261,5.063,2.807a2.744,2.744,0,0,1-2.363,2.439c1.58.476,2.363,1.35,2.363,2.547,0,2.608-2.961,2.869-5.063,2.869l-9.42.015Z" transform="translate(-185.233 -8.466)" fill="#fff" fill-rule="evenodd"/>
    <path id="Path_2" data-name="Path 2" d="M310.1,337.2h8.53v2.608h-5.569v2.547h5.047v2.455h-5.047v3.084H310.1Z" transform="translate(-185.064 -86.944)" fill="#fff"/>
    <rect id="Rectangle_1" data-name="Rectangle 1" width="2.976" height="10.678" transform="translate(135.591 250.256)" fill="#fff"/>
    <path id="Path_3" data-name="Path 3" d="M414.9,337.2h2.761l4.388,5.661V337.2h2.915v10.693h-2.577l-4.556-5.86v5.86H414.9Z" transform="translate(-273.786 -86.944)" fill="#fff"/>
    <path id="Path_4" data-name="Path 4" d="M491.6,345.282l1.642-1.964a5.488,5.488,0,0,0,3.452,1.289c.8,0,1.227-.276,1.227-.736v-.031c0-.445-.353-.69-1.795-1.028-2.271-.522-4.019-1.166-4.019-3.36v-.031c0-1.979,1.565-3.421,4.127-3.421a6.7,6.7,0,0,1,4.388,1.427l-1.488,2.1a5.341,5.341,0,0,0-2.992-1.059c-.721,0-1.074.307-1.074.69v.031c0,.491.368.706,1.841,1.043,2.455.537,3.973,1.335,3.973,3.329v.031c0,2.178-1.718,3.483-4.311,3.483a7.382,7.382,0,0,1-4.971-1.795Z" transform="translate(-338.719 -85.928)" fill="#fff"/>
    <path id="Path_5" data-name="Path 5" d="M565.6,337.2h8.576v2.531h-5.661v1.611h5.124v2.332h-5.124v1.7h5.738v2.516H565.6Z" transform="translate(-401.366 -86.944)" fill="#fff"/>
    <path id="Path_6" data-name="Path 6" d="M640.694,342.339c1.013,0,1.58-.491,1.58-1.273v-.031c0-.844-.614-1.273-1.6-1.273h-1.933v2.562h1.948ZM635.8,337.2h5.047a4.614,4.614,0,0,1,3.467,1.166,3.317,3.317,0,0,1,.951,2.485v.031a3.4,3.4,0,0,1-2.194,3.283l2.547,3.728H642.2l-2.148-3.237h-1.289v3.237H635.8Z" transform="translate(-460.797 -86.944)" fill="#fff"/>
    <path id="Path_7" data-name="Path 7" d="M703.6,337.2h3.314l2.424,6.766,2.409-6.766h3.237l-4.326,10.77h-2.731Z" transform="translate(-518.195 -86.944)" fill="#fff"/>
    <path id="Path_8" data-name="Path 8" d="M106.115,235.1a13.553,13.553,0,0,0-1.365.061,13.005,13.005,0,0,0-1.35.2,12.786,12.786,0,0,0-1.319.338q-.644.207-1.289.46a12.789,12.789,0,0,0-1.227.583,13.954,13.954,0,0,0-2.271,1.519q-.529.437-1.013.92t-.92,1.013a11.358,11.358,0,0,0-.813,1.1,13.092,13.092,0,0,0-.706,1.166,14.26,14.26,0,0,0-1.381,3.851,13.427,13.427,0,0,0-.261,2.715c0,.46.031.905.061,1.365a9.874,9.874,0,0,0,.2,1.35,14.261,14.261,0,0,0,1.381,3.851,11.213,11.213,0,0,0,.706,1.166c.261.368.522.752.813,1.1s.6.69.92,1.013.66.629,1.013.921a13.321,13.321,0,0,0,2.271,1.519,12.782,12.782,0,0,0,1.227.583q.621.253,1.289.46c.445.138.874.245,1.319.338a13.005,13.005,0,0,0,1.35.2,15.219,15.219,0,0,0,2.731,0,13.005,13.005,0,0,0,1.35-.2,12.794,12.794,0,0,0,1.319-.338q.644-.207,1.289-.46a13.506,13.506,0,0,0,2.393-1.289c.384-.261.736-.522,1.089-.813s.69-.6,1.013-.921a13.557,13.557,0,0,0,1.734-2.117c.245-.384.491-.767.706-1.166a11.488,11.488,0,0,0,.583-1.243q.253-.621.46-1.289c.138-.445.245-.874.338-1.319a14.57,14.57,0,0,0,.2-4.081,13,13,0,0,0-.2-1.35,12.782,12.782,0,0,0-.338-1.319q-.207-.644-.46-1.289a13.041,13.041,0,0,0-.583-1.243,11.215,11.215,0,0,0-.706-1.166c-.261-.368-.522-.752-.813-1.1a14.385,14.385,0,0,0-1.933-1.933,13.383,13.383,0,0,0-1.089-.813c-.368-.245-.767-.491-1.166-.706a12.79,12.79,0,0,0-1.227-.583q-.621-.253-1.289-.46a12.782,12.782,0,0,0-1.319-.338,13,13,0,0,0-1.35-.2,13.553,13.553,0,0,0-1.365-.061Zm8.683,17.52c0,3.8-4.234,4.158-7.241,4.173h-2.7v-3.421h5.37v-2.608h-5.37V247.22h5.937v-2.761h-9.082v12.35H98.245V241.283h9.312c2.777,0,7.241.4,7.241,4.065,0,1.81-1.549,3.145-3.36,3.605,2.24.706,3.36,1.81,3.36,3.667Z" transform="translate(-0.593 -0.508)" fill="#fff"/>
    <rect id="Rectangle_2" data-name="Rectangle 2" width="105" height="28" transform="translate(91.5 234.5)" fill="none"/>
  </g>
</svg>
