<svg xmlns="http://www.w3.org/2000/svg" width="19.449" height="21.61" viewBox="0 0 19.449 21.61">
  <path id="calendar" d="M9.9,5.161h8.644V3h2.161V5.161h1.08a2.161,2.161,0,0,1,2.161,2.161V22.449a2.161,2.161,0,0,1-2.161,2.161H6.661A2.161,2.161,0,0,1,4.5,22.449V7.322A2.161,2.161,0,0,1,6.661,5.161h1.08V3H9.9ZM6.661,9.483V22.449H21.788V9.483Zm2.161,3.241h2.161v2.161H8.822Zm4.322,0H15.3v2.161H13.144Zm4.322,0h2.161v2.161H17.466Zm0,4.322h2.161v2.161H17.466Zm-4.322,0H15.3v2.161H13.144Zm-4.322,0h2.161v2.161H8.822Z" transform="translate(-4.5 -3)" fill="#ed702e" fill-rule="evenodd"/>
</svg>
