<svg xmlns="http://www.w3.org/2000/svg" width="13.908" height="11.967" viewBox="0 0 13.908 11.967">
  <path id="computer" d="M1.25,5.029A1.779,1.779,0,0,1,3.029,3.25h10.35a1.779,1.779,0,0,1,1.779,1.779V11.5a1.779,1.779,0,0,1-1.779,1.779H9.636l.485.97h1.317a.485.485,0,1,1,0,.97H4.97a.485.485,0,1,1,0-.97H6.287l.485-.97H3.029A1.779,1.779,0,0,1,1.25,11.5Zm12.129,7.277H3.029A.809.809,0,0,1,2.22,11.5V5.029a.809.809,0,0,1,.809-.809h10.35a.809.809,0,0,1,.809.809V11.5A.809.809,0,0,1,13.379,12.306Z" transform="translate(-1.25 -3.25)" fill-rule="evenodd"/>
</svg>
