<svg id="Icon_ionic-ios-add-circle-outline" data-name="Icon ionic-ios-add-circle-outline" xmlns="http://www.w3.org/2000/svg" width="15.822" height="15.822" viewBox="0 0 15.822 15.822">
  <path id="Path_116791" data-name="Path 116791" d="M18,13.954H15.171V11.12a.609.609,0,1,0-1.217,0v2.833H11.12a.583.583,0,0,0-.609.609.589.589,0,0,0,.609.609h2.833V18a.589.589,0,0,0,.609.609A.605.605,0,0,0,15.171,18V15.171H18a.609.609,0,1,0,0-1.217Z" transform="translate(-6.651 -6.651)" fill="#ed702e"/>
  <path id="Path_116792" data-name="Path 116792" d="M11.286,4.44a6.843,6.843,0,1,1-4.842,2,6.8,6.8,0,0,1,4.842-2m0-1.065A7.911,7.911,0,1,0,19.2,11.286a7.91,7.91,0,0,0-7.911-7.911Z" transform="translate(-3.375 -3.375)" fill="#ed702e"/>
</svg>
