<svg id="vuesax_bold_category-2" data-name="vuesax/bold/category-2" xmlns="http://www.w3.org/2000/svg" width="14.204" height="14.204" viewBox="0 0 14.204 14.204">
  <g id="category-2">
    <path id="Vector" d="M3.1,0H1.971A1.761,1.761,0,0,0,0,1.971V3.1A1.761,1.761,0,0,0,1.971,5.066H3.1A1.761,1.761,0,0,0,5.066,3.1V1.971A1.761,1.761,0,0,0,3.1,0Z" transform="translate(7.954 1.184)" fill="#fff"/>
    <path id="Vector-2" data-name="Vector" d="M3.1,0H1.977A1.763,1.763,0,0,0,0,1.971V3.1A1.763,1.763,0,0,0,1.971,5.072H3.1A1.761,1.761,0,0,0,5.066,3.1V1.977A1.756,1.756,0,0,0,3.1,0Z" transform="translate(1.184 7.948)" fill="#fff"/>
    <path id="Vector-3" data-name="Vector" d="M5.078,2.539A2.539,2.539,0,1,1,2.539,0,2.539,2.539,0,0,1,5.078,2.539Z" transform="translate(1.184 1.184)" fill="#fff"/>
    <path id="Vector-4" data-name="Vector" d="M5.078,2.539A2.539,2.539,0,1,1,2.539,0,2.539,2.539,0,0,1,5.078,2.539Z" transform="translate(7.943 7.943)" fill="#fff"/>
    <path id="Vector-5" data-name="Vector" d="M0,0H14.2V14.2H0Z" transform="translate(14.204 14.204) rotate(180)" fill="none" opacity="0"/>
  </g>
</svg>
