<svg xmlns="http://www.w3.org/2000/svg" width="36" height="36" viewBox="0 0 36 36">
  <g id="duplicate" transform="translate(-3 -3)">
    <path id="Path_116793" data-name="Path 116793" d="M26.538,36.692H7.154A4.154,4.154,0,0,1,3,32.538V13.154A4.154,4.154,0,0,1,7.154,9H26.538a4.154,4.154,0,0,1,4.154,4.154V32.538A4.154,4.154,0,0,1,26.538,36.692ZM7.154,11.769a1.385,1.385,0,0,0-1.385,1.385V32.538a1.385,1.385,0,0,0,1.385,1.385H26.538a1.385,1.385,0,0,0,1.385-1.385V13.154a1.385,1.385,0,0,0-1.385-1.385Z" transform="translate(0 2.308)" fill="#ed702e"/>
    <path id="Path_116794" data-name="Path 116794" d="M10.385,9.923A1.385,1.385,0,0,1,9,8.538V7.154A4.154,4.154,0,0,1,13.154,3h1.385a1.385,1.385,0,1,1,0,2.769H13.154a1.385,1.385,0,0,0-1.385,1.385V8.538A1.385,1.385,0,0,1,10.385,9.923Z" transform="translate(2.308)" fill="#ed702e"/>
    <path id="Path_116795" data-name="Path 116795" d="M26.769,24.923H25.385a1.385,1.385,0,1,1,0-2.769h1.385a1.385,1.385,0,0,0,1.385-1.385V19.385a1.385,1.385,0,1,1,2.769,0v1.385A4.154,4.154,0,0,1,26.769,24.923Z" transform="translate(8.077 5.769)" fill="#ed702e"/>
    <path id="Path_116796" data-name="Path 116796" d="M29.538,9.923a1.385,1.385,0,0,1-1.385-1.385V7.154a1.385,1.385,0,0,0-1.385-1.385H25.385a1.385,1.385,0,1,1,0-2.769h1.385a4.154,4.154,0,0,1,4.154,4.154V8.538A1.385,1.385,0,0,1,29.538,9.923Z" transform="translate(8.077)" fill="#ed702e"/>
    <path id="Path_116797" data-name="Path 116797" d="M28.385,18.308A1.385,1.385,0,0,1,27,16.923V11.385a1.385,1.385,0,1,1,2.769,0v5.538A1.385,1.385,0,0,1,28.385,18.308Z" transform="translate(9.231 2.692)" fill="#ed702e"/>
    <path id="Path_116798" data-name="Path 116798" d="M22.923,5.769H17.385a1.385,1.385,0,0,1,0-2.769h5.538a1.385,1.385,0,1,1,0,2.769Z" transform="translate(5)" fill="#ed702e"/>
    <path id="Path_116799" data-name="Path 116799" d="M18.692,20.769H10.385a1.385,1.385,0,1,1,0-2.769h8.308a1.385,1.385,0,0,1,0,2.769Z" transform="translate(2.308 5.769)" fill="#ed702e"/>
    <path id="Path_116800" data-name="Path 116800" d="M13.385,26.077A1.385,1.385,0,0,1,12,24.692V16.385a1.385,1.385,0,1,1,2.769,0v8.308A1.385,1.385,0,0,1,13.385,26.077Z" transform="translate(3.462 4.615)" fill="#ed702e"/>
  </g>
</svg>
