<svg xmlns="http://www.w3.org/2000/svg" width="24" height="24" viewBox="0 0 24 24">
  <g id="error-line" transform="translate(-6 -6)">
    <path id="Path_114737" data-name="Path 114737" d="M18,6A12,12,0,1,0,30,18,12,12,0,0,0,18,6Zm0,22A10,10,0,1,1,28,18,10,10,0,0,1,18,28Z" fill="#ed702e"/>
    <path id="Path_114738" data-name="Path 114738" d="M18,20.07a1.3,1.3,0,0,1-1.3-1.3v-6a1.3,1.3,0,0,1,2.6,0v6a1.3,1.3,0,0,1-1.3,1.3Z" fill="#ed702e"/>
    <path id="Path_114739" data-name="Path 114739" d="M19.45,23.02a1.5,1.5,0,1,1-1.5-1.5,1.5,1.5,0,0,1,1.5,1.5Z" fill="#ed702e"/>
  </g>
</svg>
