<svg xmlns="http://www.w3.org/2000/svg" width="16.246" height="15.23" viewBox="0 0 16.246 15.23">
  <g id="excel" transform="translate(0 -16.01)">
    <g id="Group_135971" data-name="Group 135971" transform="translate(0 16.01)">
      <g id="Group_135970" data-name="Group 135970">
        <path id="Path_114725" data-name="Path 114725" d="M8.955,16.126a.511.511,0,0,0-.417-.108L.414,17.541a.506.506,0,0,0-.414.5V29.209a.507.507,0,0,0,.414.5l8.123,1.523a.485.485,0,0,0,.093.009.508.508,0,0,0,.508-.508V16.517A.506.506,0,0,0,8.955,16.126ZM8.123,30.12,1.015,28.788V18.461l7.108-1.332Z" transform="translate(0 -16.01)" fill="#ed702e"/>
      </g>
    </g>
    <g id="Group_135973" data-name="Group 135973" transform="translate(8.123 18.04)">
      <g id="Group_135972" data-name="Group 135972">
        <path id="Path_114726" data-name="Path 114726" d="M263.616,79.99h-7.108a.508.508,0,1,0,0,1.015h6.6v9.139h-6.6a.508.508,0,1,0,0,1.015h7.108a.508.508,0,0,0,.508-.508V80.5A.508.508,0,0,0,263.616,79.99Z" transform="translate(-256 -79.99)" fill="#ed702e"/>
      </g>
    </g>
    <g id="Group_135975" data-name="Group 135975" transform="translate(8.123 20.071)">
      <g id="Group_135974" data-name="Group 135974">
        <path id="Path_114727" data-name="Path 114727" d="M258.539,143.99h-2.031a.508.508,0,1,0,0,1.015h2.031a.508.508,0,1,0,0-1.015Z" transform="translate(-256 -143.99)" fill="#ed702e"/>
      </g>
    </g>
    <g id="Group_135977" data-name="Group 135977" transform="translate(8.123 22.102)">
      <g id="Group_135976" data-name="Group 135976">
        <path id="Path_114728" data-name="Path 114728" d="M258.539,207.99h-2.031a.508.508,0,1,0,0,1.015h2.031a.508.508,0,1,0,0-1.015Z" transform="translate(-256 -207.99)" fill="#ed702e"/>
      </g>
    </g>
    <g id="Group_135979" data-name="Group 135979" transform="translate(8.123 24.132)">
      <g id="Group_135978" data-name="Group 135978">
        <path id="Path_114729" data-name="Path 114729" d="M258.539,271.99h-2.031a.508.508,0,1,0,0,1.015h2.031a.508.508,0,1,0,0-1.015Z" transform="translate(-256 -271.99)" fill="#ed702e"/>
      </g>
    </g>
    <g id="Group_135981" data-name="Group 135981" transform="translate(8.123 26.163)">
      <g id="Group_135980" data-name="Group 135980">
        <path id="Path_114730" data-name="Path 114730" d="M258.539,335.99h-2.031a.508.508,0,1,0,0,1.015h2.031a.508.508,0,1,0,0-1.015Z" transform="translate(-256 -335.99)" fill="#ed702e"/>
      </g>
    </g>
    <g id="Group_135983" data-name="Group 135983" transform="translate(12.185 20.071)">
      <g id="Group_135982" data-name="Group 135982">
        <path id="Path_114731" data-name="Path 114731" d="M385.523,143.99h-1.015a.508.508,0,0,0,0,1.015h1.015a.508.508,0,0,0,0-1.015Z" transform="translate(-384 -143.99)" fill="#ed702e"/>
      </g>
    </g>
    <g id="Group_135985" data-name="Group 135985" transform="translate(12.185 22.102)">
      <g id="Group_135984" data-name="Group 135984">
        <path id="Path_114732" data-name="Path 114732" d="M385.523,207.99h-1.015a.508.508,0,0,0,0,1.015h1.015a.508.508,0,0,0,0-1.015Z" transform="translate(-384 -207.99)" fill="#ed702e"/>
      </g>
    </g>
    <g id="Group_135987" data-name="Group 135987" transform="translate(12.185 24.132)">
      <g id="Group_135986" data-name="Group 135986">
        <path id="Path_114733" data-name="Path 114733" d="M385.523,271.99h-1.015a.508.508,0,0,0,0,1.015h1.015a.508.508,0,0,0,0-1.015Z" transform="translate(-384 -271.99)" fill="#ed702e"/>
      </g>
    </g>
    <g id="Group_135989" data-name="Group 135989" transform="translate(12.185 26.163)">
      <g id="Group_135988" data-name="Group 135988">
        <path id="Path_114734" data-name="Path 114734" d="M385.523,335.99h-1.015a.508.508,0,0,0,0,1.015h1.015a.508.508,0,1,0,0-1.015Z" transform="translate(-384 -335.99)" fill="#ed702e"/>
      </g>
    </g>
    <g id="Group_135991" data-name="Group 135991" transform="translate(2.539 21.086)">
      <g id="Group_135990" data-name="Group 135990">
        <path id="Path_114735" data-name="Path 114735" d="M84.449,180.219l-3.554-4.062a.508.508,0,0,0-.765.668l3.554,4.062a.508.508,0,0,0,.765-.668Z" transform="translate(-80.004 -175.984)" fill="#ed702e"/>
      </g>
    </g>
    <g id="Group_135993" data-name="Group 135993" transform="translate(2.538 20.579)">
      <g id="Group_135992" data-name="Group 135992">
        <path id="Path_114736" data-name="Path 114736" d="M84.373,160.1a.508.508,0,0,0-.713.088l-3.554,4.569a.508.508,0,0,0,.8.624l3.554-4.569A.507.507,0,0,0,84.373,160.1Z" transform="translate(-79.999 -159.992)" fill="#ed702e"/>
      </g>
    </g>
  </g>
</svg>
