<svg xmlns="http://www.w3.org/2000/svg" width="45" height="39.798" viewBox="0 0 45 39.798">
  <g id="Group_135945" data-name="Group 135945" transform="translate(-555.9 -326.783)">
    <circle id="Ellipse_7415" data-name="Ellipse 7415" cx="10" cy="10" r="10" transform="translate(580.9 346.581)" fill="#ed702e" opacity="0.61"/>
    <circle id="Ellipse_7416" data-name="Ellipse 7416" cx="8" cy="8" r="8" transform="translate(555.9 336.581)" fill="#2663ed" opacity="0.61"/>
    <g id="discount" transform="translate(560.481 326.783)">
      <g id="Group_135938" data-name="Group 135938" transform="translate(0 0)">
        <g id="Group_135937" data-name="Group 135937" transform="translate(0 0)">
          <path id="Path_114719" data-name="Path 114719" d="M46.323,20.2a1.154,1.154,0,0,1,0-1.02l1.469-3a3.419,3.419,0,0,0-1.475-4.54l-2.954-1.567a1.154,1.154,0,0,1-.6-.825l-.578-3.294a3.419,3.419,0,0,0-3.862-2.806l-3.311.468a1.154,1.154,0,0,1-.97-.315L31.639.969a3.418,3.418,0,0,0-4.773,0l-2.4,2.325a1.154,1.154,0,0,1-.97.315L20.18,3.142a3.418,3.418,0,0,0-3.862,2.806l-.578,3.294a1.154,1.154,0,0,1-.6.825l-2.954,1.567a3.419,3.419,0,0,0-1.475,4.54l1.469,3a1.154,1.154,0,0,1,0,1.02l-1.469,3a3.418,3.418,0,0,0,1.475,4.54l2.954,1.567a1.154,1.154,0,0,1,.6.825l.578,3.294a3.416,3.416,0,0,0,3.37,2.84,3.512,3.512,0,0,0,.492-.035l3.311-.468a1.154,1.154,0,0,1,.97.315l2.4,2.325a3.418,3.418,0,0,0,4.773,0l2.4-2.325a1.155,1.155,0,0,1,.97-.315l3.311.468a3.418,3.418,0,0,0,3.862-2.806l.578-3.294a1.154,1.154,0,0,1,.6-.825l2.954-1.567a3.419,3.419,0,0,0,1.475-4.54Zm-1.071,5.538L42.3,27.3a3.411,3.411,0,0,0-1.772,2.439l-.578,3.294a1.157,1.157,0,0,1-1.307.949l-3.311-.468a3.41,3.41,0,0,0-2.867.932l-2.4,2.325a1.157,1.157,0,0,1-1.615,0l-2.4-2.325a3.407,3.407,0,0,0-2.379-.966,3.486,3.486,0,0,0-.489.035l-3.311.468a1.157,1.157,0,0,1-1.307-.949l-.578-3.294A3.41,3.41,0,0,0,16.206,27.3l-2.954-1.567a1.157,1.157,0,0,1-.5-1.536l1.469-3a3.411,3.411,0,0,0,0-3.015l-1.469-3a1.157,1.157,0,0,1,.5-1.536l2.954-1.567a3.411,3.411,0,0,0,1.772-2.439l.578-3.294a1.157,1.157,0,0,1,1.306-.949l3.311.468a3.411,3.411,0,0,0,2.867-.932l2.4-2.325a1.157,1.157,0,0,1,1.615,0l2.4,2.325a3.41,3.41,0,0,0,2.867.932l3.311-.468a1.157,1.157,0,0,1,1.307.949l.578,3.294A3.41,3.41,0,0,0,42.3,12.073l2.954,1.567a1.157,1.157,0,0,1,.5,1.536l-1.469,3a3.411,3.411,0,0,0,0,3.015l1.469,3A1.157,1.157,0,0,1,45.252,25.736Z" transform="translate(-10.359 0.002)"/>
        </g>
      </g>
      <g id="Group_135940" data-name="Group 135940" transform="translate(10.263 11.059)">
        <g id="Group_135939" data-name="Group 135939" transform="translate(0)">
          <path id="Path_114720" data-name="Path 114720" d="M160.719,144.124a1.136,1.136,0,0,0-1.606,0l-14.989,14.989a1.136,1.136,0,1,0,1.606,1.606l14.989-14.989A1.135,1.135,0,0,0,160.719,144.124Z" transform="translate(-143.791 -143.791)"/>
        </g>
      </g>
      <g id="Group_135942" data-name="Group 135942" transform="translate(10.186 9.469)">
        <g id="Group_135941" data-name="Group 135941">
          <path id="Path_114721" data-name="Path 114721" d="M146.966,123.116a4.164,4.164,0,1,0,4.164,4.164A4.169,4.169,0,0,0,146.966,123.116Zm0,6.057a1.893,1.893,0,1,1,1.893-1.893A1.895,1.895,0,0,1,146.966,129.173Z" transform="translate(-142.802 -123.116)"/>
        </g>
      </g>
      <g id="Group_135944" data-name="Group 135944" transform="translate(19.271 21.582)">
        <g id="Group_135943" data-name="Group 135943">
          <path id="Path_114722" data-name="Path 114722" d="M265.086,280.61a4.164,4.164,0,1,0,4.164,4.164A4.169,4.169,0,0,0,265.086,280.61Zm0,6.057a1.893,1.893,0,1,1,1.893-1.893A1.895,1.895,0,0,1,265.086,286.667Z" transform="translate(-260.922 -280.61)"/>
        </g>
      </g>
    </g>
  </g>
</svg>
