<svg id="vuesax_bold_bag-happy" data-name="vuesax/bold/bag-happy" xmlns="http://www.w3.org/2000/svg" width="17.344" height="17.344" viewBox="0 0 17.344 17.344">
  <g id="bag-happy">
    <path id="Vector" d="M12.459,2.589H12.17L9.727.146a.51.51,0,0,0-.715,0,.51.51,0,0,0,0,.715l1.727,1.727H3.714L5.442.862a.51.51,0,0,0,0-.715.51.51,0,0,0-.715,0L2.291,2.589H2c-.65,0-2,0-2,1.85A1.97,1.97,0,0,0,.448,5.906a1.167,1.167,0,0,0,.607.325,2.8,2.8,0,0,0,.65.058H12.748a3.018,3.018,0,0,0,.636-.058c.607-.145,1.07-.578,1.07-1.792C14.453,2.589,13.1,2.589,12.459,2.589Z" transform="translate(1.445 1.444)" fill="#fff"/>
    <path id="Vector-2" data-name="Vector" d="M10.972,0H.725A.722.722,0,0,0,.01.838L.617,4.553A2.8,2.8,0,0,0,3.768,7.227H7.822c2.435,0,2.869-1.221,3.129-2.587L11.681.86A.72.72,0,0,0,10.972,0ZM5.878,5.42A3.078,3.078,0,0,1,2.806,2.349a.542.542,0,1,1,1.084,0,1.987,1.987,0,0,0,3.975,0,.542.542,0,1,1,1.084,0A3.078,3.078,0,0,1,5.878,5.42Z" transform="translate(2.794 8.672)" fill="#fff"/>
    <path id="Vector-3" data-name="Vector" d="M0,0H17.344V17.344H0Z" transform="translate(17.344 17.344) rotate(180)" fill="none" opacity="0"/>
  </g>
</svg>
