<svg xmlns="http://www.w3.org/2000/svg" width="23" height="23.089" viewBox="0 0 23 23.089">
  <g id="Group_135945" data-name="Group 135945" transform="translate(-556 -323.911)">
    <circle id="Ellipse_7415" data-name="Ellipse 7415" cx="5" cy="5" r="5" transform="translate(569 337)" fill="#ed702e" opacity="0.61"/>
    <circle id="Ellipse_7416" data-name="Ellipse 7416" cx="4" cy="4" r="4" transform="translate(556 332)" fill="#2663ed" opacity="0.61"/>
    <g id="cards" transform="translate(556.338 324.061)">
      <g id="Page-1_5_" transform="translate(0.003 0)">
        <g id="_x30_06---Get-Points-Cards">
          <path id="Shape_29_" d="M1.873,22.439H17.58a1.867,1.867,0,0,0,1.855-1.717,1.866,1.866,0,0,0,.957-1.261L22.4,9.948A1.867,1.867,0,0,0,20.96,7.731L13.779,6.216l.449-.454a1.262,1.262,0,0,0,.294-1.292,1.2,1.2,0,0,0-.957-.823l-2.448-.37a.452.452,0,0,1-.337-.262L9.677.692a1.177,1.177,0,0,0-2.144,0l-1.1,2.324a.452.452,0,0,1-.337.262l-2.448.37a1.2,1.2,0,0,0-.957.823,1.262,1.262,0,0,0,.294,1.292l.351.356-.6,2.857H1.873A1.872,1.872,0,0,0,0,10.845v9.724a1.872,1.872,0,0,0,1.87,1.87Zm15.707-.748H1.873A1.122,1.122,0,0,1,.751,20.569v-.748H13.062l5.114,1.08a1.871,1.871,0,0,0,.389.041c.024,0,.047-.005.071-.006a1.119,1.119,0,0,1-1.055.755Zm.751-1.521L2.964,16.924A1.12,1.12,0,0,1,2.1,15.6l.154-.732,17.564,3.711-.154.733A1.122,1.122,0,0,1,18.331,20.17ZM3.4,4.7a.452.452,0,0,1,.359-.318L6.2,4.017a1.2,1.2,0,0,0,.9-.679l1.1-2.325a.43.43,0,0,1,.794,0l1.1,2.325a1.2,1.2,0,0,0,.9.679l2.448.37a.452.452,0,0,1,.359.318.519.519,0,0,1-.117.531l-1.758,1.78a1.267,1.267,0,0,0-.341,1.1l.416,2.526a.506.506,0,0,1-.2.5.4.4,0,0,1-.44.027L9.162,9.957a1.159,1.159,0,0,0-1.114,0l-2.21,1.209a.405.405,0,0,1-.44-.027.506.506,0,0,1-.2-.5l.414-2.525a1.268,1.268,0,0,0-.343-1.1L3.514,5.236A.519.519,0,0,1,3.4,4.7ZM4.738,7.541a.518.518,0,0,1,.137.449l-.416,2.526a1.248,1.248,0,0,0,.5,1.234,1.156,1.156,0,0,0,1.232.075l2.212-1.209a.411.411,0,0,1,.4,0l2.212,1.209a1.155,1.155,0,0,0,1.232-.075,1.248,1.248,0,0,0,.5-1.234l-.416-2.526a.518.518,0,0,1,.137-.449l.684-.693,7.651,1.615a1.119,1.119,0,0,1,.862,1.33l-1.7,8.049L2.406,14.131,3.962,6.755ZM1.873,9.724h.7L1.6,14.34v0l-.231,1.1a1.868,1.868,0,0,0,1.442,2.218l6.714,1.418H.751V10.846A1.122,1.122,0,0,1,1.873,9.724Z" transform="translate(-0.003 0)" stroke="#000" stroke-width="0.3"/>
          <path id="Shape_28_" d="M357.164,205.368l2.2.464a1.122,1.122,0,0,0,1.33-.866L361,203.5a1.122,1.122,0,0,0-.866-1.33l-2.2-.464a1.122,1.122,0,0,0-1.33.866l-.309,1.463a1.122,1.122,0,0,0,.865,1.33h0Zm-.134-1.175.309-1.463a.374.374,0,0,1,.366-.3.387.387,0,0,1,.077.008l2.2.464a.374.374,0,0,1,.289.444l-.307,1.465a.374.374,0,0,1-.444.289l-2.2-.464a.374.374,0,0,1-.288-.443Z" transform="translate(-340.661 -192.846)" stroke="#000" stroke-width="0.3"/>
          <path id="Shape_27_" d="M277.767,293.7l6.586,1.391a.374.374,0,0,0,.155-.732l-6.586-1.391a.374.374,0,1,0-.155.732Z" transform="translate(-265.31 -280.118)" stroke="#000" stroke-width="0.3"/>
          <path id="Shape_26_" d="M349.286,342.924l-3.294-.7a.374.374,0,1,0-.155.732l3.293.7a.4.4,0,0,0,.078.008.374.374,0,0,0,.077-.74h0Z" transform="translate(-330.397 -327.221)" stroke="#000" stroke-width="0.3"/>
        </g>
      </g>
    </g>
  </g>
</svg>
